<svg width="19" height="28" viewBox="0 0 19 28" fill="none" xmlns="http://www.w3.org/2000/svg">
<path d="M18.3605 7.22C18.2645 6.8597 18.0692 6.476 17.9249 6.14C16.1972 1.988 12.4223 0.5 9.37425 0.5C5.29395 0.5 0.799951 3.236 0.199951 8.8757V10.028C0.199951 10.076 0.216451 10.508 0.240151 10.724C0.576451 13.4117 2.69715 16.268 4.28115 18.9557C5.98515 21.8354 7.75335 24.668 9.50565 27.4994C10.5857 25.6517 11.6621 23.7797 12.7178 21.9797C13.0055 21.4514 13.3391 20.9234 13.6271 20.4194C13.8191 20.0837 14.1857 19.748 14.3534 19.4357C16.0571 16.3166 18.7999 13.172 18.7999 10.076V8.804C18.7999 8.4683 18.3839 7.2923 18.3605 7.22ZM9.44895 13.004C8.24955 13.004 6.93675 12.4043 6.28875 10.748C6.19215 10.4843 6.19995 9.956 6.19995 9.9077V9.1637C6.19995 7.0523 7.99275 6.092 9.55245 6.092C11.4725 6.092 12.9578 7.6283 12.9578 9.5483C12.9578 11.4683 11.369 13.004 9.44895 13.004Z" fill="white"/>
</svg>
